<svg xmlns="http://www.w3.org/2000/svg" version="1.1" xmlns:xlink="http://www.w3.org/1999/xlink" xmlns:svgjs="http://svgjs.com/svgjs" width="100" height="100"><svg width="100" height="100" viewBox="0 0 100 100" fill="none" xmlns="http://www.w3.org/2000/svg">
<rect width="100" height="100" rx="12" fill="#0A0A0A"></rect>
<path d="M76.502 76.152C76.5593 76.496 76.588 76.84 76.588 77.184C76.6453 77.4707 76.674 77.8147 76.674 78.216C76.674 78.904 76.4733 79.5347 76.072 80.108C75.9 80.3947 75.6707 80.6813 75.384 80.968C75.0973 81.1973 74.7533 81.398 74.352 81.57C72.9187 82.3727 71.3993 82.6593 69.794 82.43C68.9913 82.2007 68.2747 81.828 67.644 81.312C67.5293 81.1973 67.4433 81.14 67.386 81.14C67.3287 81.0827 67.2713 80.9967 67.214 80.882C67.1567 80.8247 67.0993 80.7673 67.042 80.71C66.9847 80.5953 66.8987 80.5093 66.784 80.452C66.4973 80.1653 66.268 79.9073 66.096 79.678C65.924 79.3913 65.752 79.1047 65.58 78.818C65.4653 78.5313 65.322 78.2733 65.15 78.044C65.0353 77.7573 64.892 77.4707 64.72 77.184C64.6053 76.9547 64.4907 76.754 64.376 76.582C64.2613 76.3527 64.1753 76.1233 64.118 75.894C63.8887 75.378 63.7453 74.9193 63.688 74.518L61.882 70.304C57.926 70.304 53.97 70.3327 50.014 70.39C46.1153 70.39 42.188 70.3613 38.232 70.304L36.426 74.518C36.3113 74.7473 36.2253 74.9767 36.168 75.206C36.168 75.4353 36.1107 75.6647 35.996 75.894C35.8813 76.1233 35.7667 76.3527 35.652 76.582C35.5947 76.754 35.5087 76.9547 35.394 77.184C35.222 77.4707 35.05 77.7573 34.878 78.044C34.7633 78.2733 34.62 78.5313 34.448 78.818C34.3333 79.1047 34.19 79.3913 34.018 79.678C33.846 79.9073 33.6167 80.1653 33.33 80.452C33.2153 80.5093 33.1293 80.5953 33.072 80.71C33.0147 80.7673 32.9573 80.8247 32.9 80.882C32.8427 80.9967 32.7853 81.0827 32.728 81.14C32.6707 81.14 32.5847 81.1973 32.47 81.312C31.8393 81.828 31.1227 82.2007 30.32 82.43C28.7147 82.6593 27.1953 82.3727 25.762 81.57C25.3607 81.398 25.0167 81.1973 24.73 80.968C24.4433 80.6813 24.214 80.3947 24.042 80.108C23.6407 79.5347 23.44 78.904 23.44 78.216C23.44 77.8147 23.44 77.4707 23.44 77.184C23.4973 76.84 23.5547 76.496 23.612 76.152C23.7267 75.636 23.87 75.12 24.042 74.604C24.214 74.088 24.3 73.83 24.3 73.83L42.188 29.798L42.704 28.422C42.8187 28.078 42.962 27.7627 43.134 27.476C43.306 27.1893 43.4493 26.8453 43.564 26.444C43.8507 25.6987 44.166 25.0393 44.51 24.466C44.682 24.122 44.8827 23.8067 45.112 23.52C45.3413 23.2333 45.5707 22.9467 45.8 22.66C46.144 22.2013 46.6313 21.8287 47.262 21.542C48.0647 21.2553 48.982 21.112 50.014 21.112C51.1033 21.112 52.0493 21.2553 52.852 21.542C53.4827 21.8287 53.97 22.2013 54.314 22.66C54.7153 23.176 55.1453 23.778 55.604 24.466C55.948 25.0393 56.2633 25.6987 56.55 26.444C56.6647 26.8453 56.808 27.1893 56.98 27.476C57.152 27.7627 57.2953 28.078 57.41 28.422L57.926 29.798L75.814 73.83C75.814 73.83 75.9 74.088 76.072 74.604C76.244 75.12 76.3873 75.636 76.502 76.152ZM56.12 55.082C55.3747 53.4193 54.6007 51.6993 53.798 49.922C53.0527 48.1447 52.25 46.3387 51.39 44.504C51.1607 43.988 50.9313 43.472 50.702 42.956C50.4727 42.3827 50.2433 41.838 50.014 41.322C49.842 41.838 49.6413 42.3827 49.412 42.956C49.1827 43.472 48.9533 43.988 48.724 44.504C47.864 46.3387 47.0327 48.1447 46.23 49.922C45.4847 51.6993 44.7393 53.4193 43.994 55.082L42.446 58.866H57.668L56.12 55.082Z" fill="white"></path>
</svg><style>@media (prefers-color-scheme: light) { :root { filter: none; } }
@media (prefers-color-scheme: dark) { :root { filter: contrast(0.8333333333333334) brightness(1.7); } }
</style></svg>